REM DIRINDEX 1\2,1\3,1\4,1\5,1\6
REM DIRNAME cjc030,folder01,folder02,folder03,folder04,folder05
TITLE ""
FILE "Disc5Track22.mp3" MP3
  TRACK 01 AUDIO
    TITLE "3:cjc030_08850"
    INDEX 01 00:00:00
  TRACK 02 AUDIO
    TITLE "0:"
    INDEX 01 00:01:09
  TRACK 03 AUDIO
    TITLE "4:cjc030_08851"
    INDEX 01 00:01:15
  TRACK 04 AUDIO
    TITLE "0:"
    INDEX 01 00:03:02
  TRACK 05 AUDIO
    TITLE "5:cjc030_08852"
    INDEX 01 00:03:10
  TRACK 06 AUDIO
    TITLE "0:"
    INDEX 01 00:04:23
  TRACK 07 AUDIO
    TITLE "6:cjc030_08853"
    INDEX 01 00:04:38
  TRACK 08 AUDIO
    TITLE "0:"
    INDEX 01 00:08:50
  TRACK 09 AUDIO
    TITLE "3:cjc030_08854"
    INDEX 01 00:09:26
  TRACK 10 AUDIO
    TITLE "0:"
    INDEX 01 00:10:33
  TRACK 11 AUDIO
    TITLE "4:cjc030_08855"
    INDEX 01 00:10:43
  TRACK 12 AUDIO
    TITLE "0:"
    INDEX 01 00:12:50
  TRACK 13 AUDIO
    TITLE "5:cjc030_08856"
    INDEX 01 00:12:56
  TRACK 14 AUDIO
    TITLE "0:"
    INDEX 01 00:13:65
  TRACK 15 AUDIO
    TITLE "6:cjc030_08857"
    INDEX 01 00:14:04
  TRACK 16 AUDIO
    TITLE "0:"
    INDEX 01 00:15:70
  TRACK 17 AUDIO
    TITLE "3:cjc030_08858"
    INDEX 01 00:16:48
  TRACK 18 AUDIO
    TITLE "0:"
    INDEX 01 00:17:67
  TRACK 19 AUDIO
    TITLE "4:cjc030_08859"
    INDEX 01 00:17:74
  TRACK 20 AUDIO
    TITLE "0:"
    INDEX 01 00:19:20
  TRACK 21 AUDIO
    TITLE "5:cjc030_08860"
    INDEX 01 00:19:32
  TRACK 22 AUDIO
    TITLE "0:"
    INDEX 01 00:20:47
  TRACK 23 AUDIO
    TITLE "3:cjc030_08861"
    INDEX 01 00:21:29
  TRACK 24 AUDIO
    TITLE "0:"
    INDEX 01 00:22:40
  TRACK 25 AUDIO
    TITLE "4:cjc030_08862"
    INDEX 01 00:22:50
  TRACK 26 AUDIO
    TITLE "0:"
    INDEX 01 00:25:46
  TRACK 27 AUDIO
    TITLE "5:cjc030_08863"
    INDEX 01 00:25:58
  TRACK 28 AUDIO
    TITLE "0:"
    INDEX 01 00:26:67
  TRACK 29 AUDIO
    TITLE "6:cjc030_08864"
    INDEX 01 00:27:06
  TRACK 30 AUDIO
    TITLE "0:"
    INDEX 01 00:32:70
  TRACK 31 AUDIO
    TITLE "3:cjc030_08865"
    INDEX 01 00:33:40
  TRACK 32 AUDIO
    TITLE "0:"
    INDEX 01 00:34:45
  TRACK 33 AUDIO
    TITLE "4:cjc030_08866"
    INDEX 01 00:34:51
  TRACK 34 AUDIO
    TITLE "0:"
    INDEX 01 00:35:57
  TRACK 35 AUDIO
    TITLE "5:cjc030_08867"
    INDEX 01 00:35:66
  TRACK 36 AUDIO
    TITLE "0:"
    INDEX 01 00:36:68
  TRACK 37 AUDIO
    TITLE "6:cjc030_08868"
    INDEX 01 00:37:07
  TRACK 38 AUDIO
    TITLE "0:"
    INDEX 01 00:41:36
  TRACK 39 AUDIO
    TITLE "3:cjc030_08869"
    INDEX 01 00:42:12
  TRACK 40 AUDIO
    TITLE "0:"
    INDEX 01 00:43:13
  TRACK 41 AUDIO
    TITLE "4:cjc030_08870"
    INDEX 01 00:43:23
  TRACK 42 AUDIO
    TITLE "0:"
    INDEX 01 00:45:30
  TRACK 43 AUDIO
    TITLE "5:cjc030_08871"
    INDEX 01 00:45:39
  TRACK 44 AUDIO
    TITLE "0:"
    INDEX 01 00:46:41
  TRACK 45 AUDIO
    TITLE "6:cjc030_08872"
    INDEX 01 00:46:54
  TRACK 46 AUDIO
    TITLE "0:"
    INDEX 01 00:50:52
  TRACK 47 AUDIO
    TITLE "3:cjc030_08873"
    INDEX 01 00:51:28
  TRACK 48 AUDIO
    TITLE "0:"
    INDEX 01 00:52:30
  TRACK 49 AUDIO
    TITLE "4:cjc030_08874"
    INDEX 01 00:52:37
  TRACK 50 AUDIO
    TITLE "0:"
    INDEX 01 00:54:44
  TRACK 51 AUDIO
    TITLE "5:cjc030_08875"
    INDEX 01 00:54:54
  TRACK 52 AUDIO
    TITLE "0:"
    INDEX 01 00:55:55
  TRACK 53 AUDIO
    TITLE "3:cjc030_08876"
    INDEX 01 00:56:33
  TRACK 54 AUDIO
    TITLE "0:"
    INDEX 01 00:57:43
  TRACK 55 AUDIO
    TITLE "4:cjc030_08877"
    INDEX 01 00:57:52
  TRACK 56 AUDIO
    TITLE "0:"
    INDEX 01 00:59:26
  TRACK 57 AUDIO
    TITLE "5:cjc030_08878"
    INDEX 01 00:59:38
  TRACK 58 AUDIO
    TITLE "0:"
    INDEX 01 01:00:43
  TRACK 59 AUDIO
    TITLE "6:cjc030_08879"
    INDEX 01 01:00:59
  TRACK 60 AUDIO
    TITLE "0:"
    INDEX 01 01:02:32
  TRACK 61 AUDIO
    TITLE "3:cjc030_08880"
    INDEX 01 01:03:06
  TRACK 62 AUDIO
    TITLE "0:"
    INDEX 01 01:04:00
  TRACK 63 AUDIO
    TITLE "4:cjc030_08881"
    INDEX 01 01:04:07
  TRACK 64 AUDIO
    TITLE "0:"
    INDEX 01 01:06:65
  TRACK 65 AUDIO
    TITLE "5:cjc030_08882"
    INDEX 01 01:06:71
  TRACK 66 AUDIO
    TITLE "0:"
    INDEX 01 01:07:66
  TRACK 67 AUDIO
    TITLE "6:cjc030_08883"
    INDEX 01 01:08:07
  TRACK 68 AUDIO
    TITLE "0:"
    INDEX 01 01:12:48
